PathFileType	4	(X/Y/Z)	D:\TRACE\spotREDO_2-26-24\spot_justBody_Motion_2_7-v60.trc
DataRate	CameraRate	NumFrames	NumMarkers	Units	OrigDataRate	OrigDataStartFrame	OrigNumFrames
100.00	100.00	      21	9	mm	100.00	1	      7000
Frame#	Time	front left toe			Front right toe			aft left toe			aft right toe			Arm			FL body			FR body			AL Body			AR Body			
		X1	Y1	Z1	X2	Y2	Z2	X3	Y3	Z3	X4	Y4	Z4	X5	Y5	Z5	X6	Y6	Z6	X7	Y7	Z7	X8	Y8	Z8	X9	Y9	Z9	

1	0.000	-202.29002	23.02716	-238.41801	305.71768	25.10032	-163.09201	-286.71707	23.89298	349.86618	215.82605	29.39136	425.84930	71.77690	714.58783	-351.01251	-14.77026	456.05063	-329.21375	140.04352	460.58597	-308.86169	-137.56934	501.25195	545.23065	2.72156	506.11444	565.41632	
2	0.010	-202.16541	22.69946	-238.81740	305.71390	25.08654	-163.32269	-286.72705	23.77917	349.70380	215.79117	29.29287	425.53278	71.88605	719.47772	-350.66409	-14.71077	460.59387	-329.02795	140.03885	465.52734	-308.70337	-137.39951	505.41528	545.70398	2.92021	509.97449	565.65912	
3	0.020	-202.37395	22.63513	-239.18102	305.80774	25.00808	-163.44168	-286.71799	23.68328	349.54227	215.83511	29.21206	425.38278	71.80725	724.17688	-350.23889	-14.59789	465.39557	-328.74756	140.12154	470.25278	-308.54428	-137.22774	509.05646	545.70538	2.73272	514.01282	565.87274	
4	0.030	-202.48380	22.78322	-239.45801	306.10388	24.78488	-163.67767	-286.72281	23.57643	349.43811	215.93503	29.27439	425.27420	71.65426	729.30096	-349.69556	-14.64265	470.30930	-328.58978	140.42627	474.98792	-307.93423	-137.47624	512.98517	545.81866	1.98897	518.05176	565.90076	
5	0.040	-202.58331	22.82345	-239.58658	306.59787	25.01448	-163.93115	-286.75793	23.60326	349.32468	216.22215	29.31367	425.23215	71.62749	734.10022	-349.10330	-14.70680	475.32458	-328.54077	140.43076	480.01749	-308.11172	-137.29056	517.10419	546.15686	2.74934	522.04584	566.21295	
6	0.050	-202.61935	22.77480	-239.72784	306.74164	24.99457	-164.34113	-286.74548	23.60410	349.08307	216.45120	29.26171	425.02594	71.87615	739.10144	-348.79144	-14.48392	480.13544	-328.29050	140.63992	484.79358	-307.94241	-137.28285	521.02362	546.34119	2.79525	526.02179	566.64429	
7	0.060	-202.55814	22.73889	-239.94069	305.92676	23.99804	-164.64609	-286.67947	23.39682	348.73602	216.86121	29.16289	424.82742	71.65462	743.96033	-348.61212	-14.47933	484.85193	-328.13376	140.79678	489.50647	-307.81842	-137.31783	524.85986	546.42322	2.98307	529.95148	566.66046	
8	0.070	-202.44510	22.46643	-240.16840	305.98264	23.94949	-164.92070	-286.52777	23.29032	348.57123	217.09888	29.22064	424.66180	71.58479	748.68170	-348.11325	-14.33875	489.41733	-327.98257	139.98544	494.44824	-307.93079	-137.30620	528.60919	546.59222	2.86567	533.54956	566.88538	
9	0.080	-202.74762	22.73321	-240.62129	306.51102	24.65203	-164.41574	-286.40494	23.33873	348.16574	217.04388	29.19037	424.20880	71.50739	753.40778	-347.72717	-14.30653	494.11230	-328.06796	140.02362	499.19766	-307.72174	-137.47272	532.27698	546.74255	2.84747	537.28052	567.23077	
10	0.090	-202.71489	22.96752	-240.93347	306.12717	24.00303	-165.13043	-286.46793	23.46918	347.90298	216.91580	29.18267	423.87985	71.66261	757.84235	-347.43942	-14.27803	498.60397	-327.86896	140.35854	503.62939	-307.53610	-137.36221	536.02386	546.78406	3.21899	541.10675	567.18024	
11	0.100	-202.69527	22.98715	-241.13606	306.15982	24.02301	-165.34169	-286.78455	23.63873	347.70081	217.18182	29.26792	423.85992	71.82305	762.44293	-346.98325	-14.23139	503.15063	-327.73572	140.33577	508.23593	-307.46088	-137.50294	539.66589	546.91486	3.32013	544.63934	567.39117	
12	0.110	-202.78697	22.99163	-241.42728	306.34122	23.50443	-166.06171	-286.81055	23.65515	347.42868	217.15657	29.18732	423.61536	71.66940	766.73199	-346.63922	-14.03793	507.44980	-327.46194	140.33070	512.49164	-307.31903	-137.71182	543.11243	547.08734	3.13404	548.02954	567.56171	
13	0.120	-202.84402	22.85528	-241.80162	306.43085	23.81144	-165.75389	-286.77087	23.54392	347.32181	217.12660	28.97307	423.32959	71.57218	770.71582	-346.16367	-13.96510	511.52902	-327.40820	140.29263	516.57092	-307.13742	-137.63626	546.28870	547.19476	3.08890	551.37744	567.60663	
14	0.130	-202.75888	22.69422	-242.04291	306.58969	23.69546	-165.88239	-286.68835	23.42804	347.16956	217.17416	28.89007	423.23053	71.74310	774.74384	-345.83292	-14.08922	515.57025	-327.55661	140.29520	520.62793	-307.09311	-137.90904	549.34418	547.19934	3.37928	554.47870	567.87061	
15	0.140	-202.82614	22.75002	-242.31186	306.59335	23.72295	-166.00380	-286.64682	23.35595	346.97598	217.29108	28.92717	423.22464	71.63467	778.75159	-345.65109	-14.06700	519.39264	-327.39505	140.48608	524.34625	-306.95694	-137.77232	552.27893	547.43304	3.76854	557.50024	567.95886	
16	0.150	-202.91046	22.85918	-242.56357	306.63464	23.88343	-166.20743	-286.59961	23.42835	346.72598	217.39238	28.99313	423.07568	71.80243	782.39545	-345.31635	-13.85450	522.98248	-327.20670	140.70955	528.20056	-306.85818	-138.01169	555.29883	547.48236	2.18263	560.88586	567.90088	
17	0.160	-202.90254	22.96646	-242.72813	306.66769	24.08306	-166.39742	-286.63223	23.45467	346.58194	217.38287	28.96060	422.89178	71.74948	786.04926	-345.11765	-13.75381	526.68768	-327.18906	140.51402	531.68896	-306.83438	-138.12125	557.98517	547.52197	2.34987	563.34302	568.03375	
18	0.170	-203.03516	23.01051	-242.90472	306.70920	24.28625	-166.41727	-286.59079	23.39358	346.48724	217.37540	28.93253	422.57452	71.84299	789.19757	-344.55984	-13.86867	529.76855	-326.98318	140.64798	534.99573	-306.66766	-138.13538	560.54205	547.56512	2.29644	565.88788	568.17725	
19	0.180	-202.82831	22.81152	-243.08270	306.64566	24.20351	-166.42795	-286.43399	23.11851	346.31265	217.35417	28.90362	422.39606	71.87407	792.37494	-344.31833	-13.64487	532.90192	-327.22894	140.59090	537.92285	-306.74966	-138.08527	562.79102	547.71509	1.81437	568.27734	568.18610	
20	0.190	-202.49913	22.35337	-243.22066	306.70932	24.07961	-166.72958	-286.42349	23.09570	346.18008	217.38805	28.81751	422.19611	71.69683	795.18164	-344.09543	-13.79521	535.78192	-327.20273	140.68437	541.08112	-306.63165	-137.94408	564.83319	547.90009	2.20938	570.19226	568.38214	
21	0.200	-202.35948	22.31009	-243.42288	307.01480	24.29633	-166.82196	-286.46524	23.11264	345.94431	217.45020	28.74542	422.01401	71.53102	797.87354	-343.94211	-13.72909	538.50128	-327.14883	140.74202	543.72174	-306.58429	-137.89563	566.84058	548.02063	2.47587	572.23395	568.48047	
